<svg width="136" height="193" viewBox="0 0 136 193" fill="none" xmlns="http://www.w3.org/2000/svg">
<mask id="path-1-outside-1_1148_293" maskUnits="userSpaceOnUse" x="0" y="0" width="136" height="193" fill="black">
<rect fill="white" width="136" height="193"/>
<path d="M34.1035 18.0039C32.8535 18.4727 31.3691 19.0391 29.6504 19.7031L25.2559 21.4023C25.2559 19.5664 24.748 18.6484 23.7324 18.6484C22.2871 18.6484 20.8418 19.4688 19.3965 21.1094C18.3809 22.3203 17.9512 23.4922 18.1074 24.625C18.2246 25.3672 18.9668 25.7383 20.334 25.7383C21.0762 25.7383 22.0527 25.6211 23.2637 25.3867C24.9434 25.0352 26.4277 24.8594 27.7168 24.8594C30.998 24.8594 32.9121 25.9922 33.459 28.2578C33.6152 28.9609 33.6934 29.7031 33.6934 30.4844C33.6934 32.9844 32.7559 35.6797 30.8809 38.5703C28.459 42.3594 25.0605 45.543 20.6855 48.1211C18.3809 49.4883 16.1152 50.1719 13.8887 50.1719C11.8574 50.1719 9.86523 49.6055 7.91211 48.4727C8.88867 46.1289 10.4512 42.6719 12.5996 38.1016C13.8496 38.9609 15.1777 39.3906 16.584 39.3906C17.209 39.3906 17.8535 39.293 18.5176 39.0977C19.7285 38.7852 20.8809 38.3359 21.9746 37.75C23.5371 36.8906 24.3184 36.0117 24.3184 35.1133C24.3184 34.1367 23.5176 33.6484 21.916 33.6484C20.8223 33.6484 19.2207 33.8828 17.1113 34.3516C15.041 34.7812 13.459 34.9961 12.3652 34.9961C10.9199 34.9961 9.80664 34.7227 9.02539 34.1758C7.50195 33.1602 6.87695 31.5781 7.15039 29.4297C7.6582 25.0938 10.4512 20.0742 15.5293 14.3711C20.7246 8.51172 25.1973 5.44531 28.9473 5.17188C32.5801 4.9375 34.3965 7.67187 34.3965 13.375C34.3965 14.7422 34.2988 16.2852 34.1035 18.0039ZM55.3145 3.17969C59.4551 3.17969 62.3848 5.48438 64.1035 10.0938C65.002 12.4766 65.4512 15.0938 65.4512 17.9453C65.4512 20.6797 65.041 23.6484 64.2207 26.8516C62.7754 32.3203 60.2754 37.3594 56.7207 41.9688C52.3848 47.5938 47.7949 50.4062 42.9512 50.4062C38.7715 50.4062 35.8027 48.1016 34.0449 43.4922C33.1855 41.2266 32.7559 38.6875 32.7559 35.875C32.7559 33.1016 33.1855 30.0938 34.0449 26.8516C35.4902 21.3438 37.9707 16.2852 41.4863 11.6758C45.8223 6.01172 50.4316 3.17969 55.3145 3.17969ZM53.2051 17.7109C51.0566 17.7109 48.8691 19.4688 46.6426 22.9844C44.8457 25.7578 43.5957 28.4727 42.8926 31.1289C42.541 32.5352 42.3652 33.8047 42.3652 34.9375C42.3652 36.5391 42.7559 37.8477 43.5371 38.8633C44.4355 39.9961 45.6855 40.5625 47.2871 40.5625C49.4746 40.5625 51.4473 39.4102 53.2051 37.1055C54.6113 35.2695 55.627 33.1016 56.252 30.6016C56.9941 27.6719 57.1504 24.7812 56.7207 21.9297C56.252 19.1172 55.0801 17.7109 53.2051 17.7109ZM68.9082 7.80859L79.0449 5.75781C78.9668 6.96875 78.9277 8.6875 78.9277 10.9141C78.9277 16.2266 79.1035 20.8945 79.4551 24.918C79.6504 27.2227 79.9434 29.0781 80.334 30.4844L84.3184 7.63281L94.3965 5.75781C90.334 21.4219 87.6777 34.9961 86.4277 46.4805L77.1699 49.0586C77.1309 48.9805 76.877 48.2969 76.4082 47.0078L73.3613 38.3359C72.8535 36.9297 72.5605 36.0312 72.4824 35.6406C71.6621 40.25 71.0176 44.7227 70.5488 49.0586L61.1738 51.8711L68.9082 7.80859ZM96.7988 7.63281L106.877 5.75781C102.814 21.4219 100.158 34.9961 98.9082 46.4805L89.5918 49.0586L96.7988 7.63281ZM122.932 4.76172C126.994 4.76172 129.982 6.96875 131.896 11.3828L125.275 18.6484C124.377 17.7109 123.342 17.2422 122.17 17.2422C120.1 17.2422 117.951 19.0195 115.725 22.5742C113.889 25.5039 112.697 28.2383 112.15 30.7773C111.877 31.9883 111.74 33.082 111.74 34.0586C111.74 36.6758 112.697 38.4727 114.611 39.4492C115.236 39.7617 115.9 39.918 116.604 39.918C118.635 39.918 120.764 38.4141 122.99 35.4062L124.865 42.3789C120.998 46.6758 117.072 48.8242 113.088 48.8242C109.025 48.8242 106.057 46.6758 104.182 42.3789C103.049 39.8789 102.482 37.0859 102.482 34C102.482 31.7344 102.775 29.332 103.361 26.793C104.533 21.5977 106.76 16.8516 110.041 12.5547C113.986 7.35938 118.283 4.76172 122.932 4.76172Z"/>
<path d="M77.5801 119.898L68.2637 125.699L67.209 120.016C66.8574 118.102 66.5059 116.168 66.1543 114.215L63.3418 119.312C62.4043 121.031 61.4863 122.711 60.5879 124.352L50.3926 123.473L63.6348 102.555C62.1113 96.1875 60.5293 90.5039 58.8887 85.5039L67.1504 79.293L70.373 91.8906L77.9902 79.9375L85.6074 82.6328C81.4668 88.5703 77.2871 95.1133 73.0684 102.262L77.5801 119.898Z"/>
<path d="M23.8789 143.762C27.9414 143.762 30.9297 145.969 32.8438 150.383L26.2227 157.648C25.3242 156.711 24.2891 156.242 23.1172 156.242C21.0469 156.242 18.8984 158.02 16.6719 161.574C14.8359 164.504 13.6445 167.238 13.0977 169.777C12.8242 170.988 12.6875 172.082 12.6875 173.059C12.6875 175.676 13.6445 177.473 15.5586 178.449C16.1836 178.762 16.8477 178.918 17.5508 178.918C19.582 178.918 21.7109 177.414 23.9375 174.406L25.8125 181.379C21.9453 185.676 18.0195 187.824 14.0352 187.824C9.97266 187.824 7.00391 185.676 5.12891 181.379C3.99609 178.879 3.42969 176.086 3.42969 173C3.42969 170.734 3.72266 168.332 4.30859 165.793C5.48047 160.598 7.70703 155.852 10.9883 151.555C14.9336 146.359 19.2305 143.762 23.8789 143.762ZM32.9609 146.574C39.0938 144.738 44.1133 143.82 48.0195 143.82C53.293 143.82 55.9102 145.656 55.8711 149.328C55.832 154.602 52.5117 159.895 45.9102 165.207C46.457 166.691 48.7227 171.359 52.707 179.211C50.6758 181.086 47.6094 183.84 43.5078 187.473L37.2383 171.301H37.1797C36.2422 176.418 35.5391 181.145 35.0703 185.48L25.8125 188.059C25.8906 187.199 26.3203 184.602 27.1016 180.266L32.9609 146.574ZM40.3438 155.832C39.9922 157.16 39.6797 158.488 39.4062 159.816L38.5859 163.801C39.9531 163.098 41.3008 162.18 42.6289 161.047C44.1523 159.719 45.168 158.449 45.6758 157.238C45.8711 156.887 45.9688 156.555 45.9688 156.242C45.9688 155.383 45.4023 154.953 44.2695 154.953C43.3711 154.953 42.0625 155.246 40.3438 155.832ZM73.2148 142.18C77.3555 142.18 80.2852 144.484 82.0039 149.094C82.9023 151.477 83.3516 154.094 83.3516 156.945C83.3516 159.68 82.9414 162.648 82.1211 165.852C80.6758 171.32 78.1758 176.359 74.6211 180.969C70.2852 186.594 65.6953 189.406 60.8516 189.406C56.6719 189.406 53.7031 187.102 51.9453 182.492C51.0859 180.227 50.6562 177.688 50.6562 174.875C50.6562 172.102 51.0859 169.094 51.9453 165.852C53.3906 160.344 55.8711 155.285 59.3867 150.676C63.7227 145.012 68.332 142.18 73.2148 142.18ZM71.1055 156.711C68.957 156.711 66.7695 158.469 64.543 161.984C62.7461 164.758 61.4961 167.473 60.793 170.129C60.4414 171.535 60.2656 172.805 60.2656 173.938C60.2656 175.539 60.6562 176.848 61.4375 177.863C62.3359 178.996 63.5859 179.562 65.1875 179.562C67.375 179.562 69.3477 178.41 71.1055 176.105C72.5117 174.27 73.5273 172.102 74.1523 169.602C74.8945 166.672 75.0508 163.781 74.6211 160.93C74.1523 158.117 72.9805 156.711 71.1055 156.711ZM100.461 143.762C104.523 143.762 107.512 145.969 109.426 150.383L102.805 157.648C101.906 156.711 100.871 156.242 99.6992 156.242C97.6289 156.242 95.4805 158.02 93.2539 161.574C91.418 164.504 90.2266 167.238 89.6797 169.777C89.4062 170.988 89.2695 172.082 89.2695 173.059C89.2695 175.676 90.2266 177.473 92.1406 178.449C92.7656 178.762 93.4297 178.918 94.1328 178.918C96.1641 178.918 98.293 177.414 100.52 174.406L102.395 181.379C98.5273 185.676 94.6016 187.824 90.6172 187.824C86.5547 187.824 83.5859 185.676 81.7109 181.379C80.5781 178.879 80.0117 176.086 80.0117 173C80.0117 170.734 80.3047 168.332 80.8906 165.793C82.0625 160.598 84.2891 155.852 87.5703 151.555C91.5156 146.359 95.8125 143.762 100.461 143.762ZM130.754 157.004C129.504 157.473 128.02 158.039 126.301 158.703L121.906 160.402C121.906 158.566 121.398 157.648 120.383 157.648C118.938 157.648 117.492 158.469 116.047 160.109C115.031 161.32 114.602 162.492 114.758 163.625C114.875 164.367 115.617 164.738 116.984 164.738C117.727 164.738 118.703 164.621 119.914 164.387C121.594 164.035 123.078 163.859 124.367 163.859C127.648 163.859 129.562 164.992 130.109 167.258C130.266 167.961 130.344 168.703 130.344 169.484C130.344 171.984 129.406 174.68 127.531 177.57C125.109 181.359 121.711 184.543 117.336 187.121C115.031 188.488 112.766 189.172 110.539 189.172C108.508 189.172 106.516 188.605 104.562 187.473C105.539 185.129 107.102 181.672 109.25 177.102C110.5 177.961 111.828 178.391 113.234 178.391C113.859 178.391 114.504 178.293 115.168 178.098C116.379 177.785 117.531 177.336 118.625 176.75C120.188 175.891 120.969 175.012 120.969 174.113C120.969 173.137 120.168 172.648 118.566 172.648C117.473 172.648 115.871 172.883 113.762 173.352C111.691 173.781 110.109 173.996 109.016 173.996C107.57 173.996 106.457 173.723 105.676 173.176C104.152 172.16 103.527 170.578 103.801 168.43C104.309 164.094 107.102 159.074 112.18 153.371C117.375 147.512 121.848 144.445 125.598 144.172C129.23 143.938 131.047 146.672 131.047 152.375C131.047 153.742 130.949 155.285 130.754 157.004Z"/>
</mask>
<path d="M34.1035 18.0039C32.8535 18.4727 31.3691 19.0391 29.6504 19.7031L25.2559 21.4023C25.2559 19.5664 24.748 18.6484 23.7324 18.6484C22.2871 18.6484 20.8418 19.4688 19.3965 21.1094C18.3809 22.3203 17.9512 23.4922 18.1074 24.625C18.2246 25.3672 18.9668 25.7383 20.334 25.7383C21.0762 25.7383 22.0527 25.6211 23.2637 25.3867C24.9434 25.0352 26.4277 24.8594 27.7168 24.8594C30.998 24.8594 32.9121 25.9922 33.459 28.2578C33.6152 28.9609 33.6934 29.7031 33.6934 30.4844C33.6934 32.9844 32.7559 35.6797 30.8809 38.5703C28.459 42.3594 25.0605 45.543 20.6855 48.1211C18.3809 49.4883 16.1152 50.1719 13.8887 50.1719C11.8574 50.1719 9.86523 49.6055 7.91211 48.4727C8.88867 46.1289 10.4512 42.6719 12.5996 38.1016C13.8496 38.9609 15.1777 39.3906 16.584 39.3906C17.209 39.3906 17.8535 39.293 18.5176 39.0977C19.7285 38.7852 20.8809 38.3359 21.9746 37.75C23.5371 36.8906 24.3184 36.0117 24.3184 35.1133C24.3184 34.1367 23.5176 33.6484 21.916 33.6484C20.8223 33.6484 19.2207 33.8828 17.1113 34.3516C15.041 34.7812 13.459 34.9961 12.3652 34.9961C10.9199 34.9961 9.80664 34.7227 9.02539 34.1758C7.50195 33.1602 6.87695 31.5781 7.15039 29.4297C7.6582 25.0938 10.4512 20.0742 15.5293 14.3711C20.7246 8.51172 25.1973 5.44531 28.9473 5.17188C32.5801 4.9375 34.3965 7.67187 34.3965 13.375C34.3965 14.7422 34.2988 16.2852 34.1035 18.0039ZM55.3145 3.17969C59.4551 3.17969 62.3848 5.48438 64.1035 10.0938C65.002 12.4766 65.4512 15.0938 65.4512 17.9453C65.4512 20.6797 65.041 23.6484 64.2207 26.8516C62.7754 32.3203 60.2754 37.3594 56.7207 41.9688C52.3848 47.5938 47.7949 50.4062 42.9512 50.4062C38.7715 50.4062 35.8027 48.1016 34.0449 43.4922C33.1855 41.2266 32.7559 38.6875 32.7559 35.875C32.7559 33.1016 33.1855 30.0938 34.0449 26.8516C35.4902 21.3438 37.9707 16.2852 41.4863 11.6758C45.8223 6.01172 50.4316 3.17969 55.3145 3.17969ZM53.2051 17.7109C51.0566 17.7109 48.8691 19.4688 46.6426 22.9844C44.8457 25.7578 43.5957 28.4727 42.8926 31.1289C42.541 32.5352 42.3652 33.8047 42.3652 34.9375C42.3652 36.5391 42.7559 37.8477 43.5371 38.8633C44.4355 39.9961 45.6855 40.5625 47.2871 40.5625C49.4746 40.5625 51.4473 39.4102 53.2051 37.1055C54.6113 35.2695 55.627 33.1016 56.252 30.6016C56.9941 27.6719 57.1504 24.7812 56.7207 21.9297C56.252 19.1172 55.0801 17.7109 53.2051 17.7109ZM68.9082 7.80859L79.0449 5.75781C78.9668 6.96875 78.9277 8.6875 78.9277 10.9141C78.9277 16.2266 79.1035 20.8945 79.4551 24.918C79.6504 27.2227 79.9434 29.0781 80.334 30.4844L84.3184 7.63281L94.3965 5.75781C90.334 21.4219 87.6777 34.9961 86.4277 46.4805L77.1699 49.0586C77.1309 48.9805 76.877 48.2969 76.4082 47.0078L73.3613 38.3359C72.8535 36.9297 72.5605 36.0312 72.4824 35.6406C71.6621 40.25 71.0176 44.7227 70.5488 49.0586L61.1738 51.8711L68.9082 7.80859ZM96.7988 7.63281L106.877 5.75781C102.814 21.4219 100.158 34.9961 98.9082 46.4805L89.5918 49.0586L96.7988 7.63281ZM122.932 4.76172C126.994 4.76172 129.982 6.96875 131.896 11.3828L125.275 18.6484C124.377 17.7109 123.342 17.2422 122.17 17.2422C120.1 17.2422 117.951 19.0195 115.725 22.5742C113.889 25.5039 112.697 28.2383 112.15 30.7773C111.877 31.9883 111.74 33.082 111.74 34.0586C111.74 36.6758 112.697 38.4727 114.611 39.4492C115.236 39.7617 115.9 39.918 116.604 39.918C118.635 39.918 120.764 38.4141 122.99 35.4062L124.865 42.3789C120.998 46.6758 117.072 48.8242 113.088 48.8242C109.025 48.8242 106.057 46.6758 104.182 42.3789C103.049 39.8789 102.482 37.0859 102.482 34C102.482 31.7344 102.775 29.332 103.361 26.793C104.533 21.5977 106.76 16.8516 110.041 12.5547C113.986 7.35938 118.283 4.76172 122.932 4.76172Z" fill="#003EB9"/>
<path d="M77.5801 119.898L68.2637 125.699L67.209 120.016C66.8574 118.102 66.5059 116.168 66.1543 114.215L63.3418 119.312C62.4043 121.031 61.4863 122.711 60.5879 124.352L50.3926 123.473L63.6348 102.555C62.1113 96.1875 60.5293 90.5039 58.8887 85.5039L67.1504 79.293L70.373 91.8906L77.9902 79.9375L85.6074 82.6328C81.4668 88.5703 77.2871 95.1133 73.0684 102.262L77.5801 119.898Z" fill="black"/>
<path d="M23.8789 143.762C27.9414 143.762 30.9297 145.969 32.8438 150.383L26.2227 157.648C25.3242 156.711 24.2891 156.242 23.1172 156.242C21.0469 156.242 18.8984 158.02 16.6719 161.574C14.8359 164.504 13.6445 167.238 13.0977 169.777C12.8242 170.988 12.6875 172.082 12.6875 173.059C12.6875 175.676 13.6445 177.473 15.5586 178.449C16.1836 178.762 16.8477 178.918 17.5508 178.918C19.582 178.918 21.7109 177.414 23.9375 174.406L25.8125 181.379C21.9453 185.676 18.0195 187.824 14.0352 187.824C9.97266 187.824 7.00391 185.676 5.12891 181.379C3.99609 178.879 3.42969 176.086 3.42969 173C3.42969 170.734 3.72266 168.332 4.30859 165.793C5.48047 160.598 7.70703 155.852 10.9883 151.555C14.9336 146.359 19.2305 143.762 23.8789 143.762ZM32.9609 146.574C39.0938 144.738 44.1133 143.82 48.0195 143.82C53.293 143.82 55.9102 145.656 55.8711 149.328C55.832 154.602 52.5117 159.895 45.9102 165.207C46.457 166.691 48.7227 171.359 52.707 179.211C50.6758 181.086 47.6094 183.84 43.5078 187.473L37.2383 171.301H37.1797C36.2422 176.418 35.5391 181.145 35.0703 185.48L25.8125 188.059C25.8906 187.199 26.3203 184.602 27.1016 180.266L32.9609 146.574ZM40.3438 155.832C39.9922 157.16 39.6797 158.488 39.4062 159.816L38.5859 163.801C39.9531 163.098 41.3008 162.18 42.6289 161.047C44.1523 159.719 45.168 158.449 45.6758 157.238C45.8711 156.887 45.9688 156.555 45.9688 156.242C45.9688 155.383 45.4023 154.953 44.2695 154.953C43.3711 154.953 42.0625 155.246 40.3438 155.832ZM73.2148 142.18C77.3555 142.18 80.2852 144.484 82.0039 149.094C82.9023 151.477 83.3516 154.094 83.3516 156.945C83.3516 159.68 82.9414 162.648 82.1211 165.852C80.6758 171.32 78.1758 176.359 74.6211 180.969C70.2852 186.594 65.6953 189.406 60.8516 189.406C56.6719 189.406 53.7031 187.102 51.9453 182.492C51.0859 180.227 50.6562 177.688 50.6562 174.875C50.6562 172.102 51.0859 169.094 51.9453 165.852C53.3906 160.344 55.8711 155.285 59.3867 150.676C63.7227 145.012 68.332 142.18 73.2148 142.18ZM71.1055 156.711C68.957 156.711 66.7695 158.469 64.543 161.984C62.7461 164.758 61.4961 167.473 60.793 170.129C60.4414 171.535 60.2656 172.805 60.2656 173.938C60.2656 175.539 60.6562 176.848 61.4375 177.863C62.3359 178.996 63.5859 179.562 65.1875 179.562C67.375 179.562 69.3477 178.41 71.1055 176.105C72.5117 174.27 73.5273 172.102 74.1523 169.602C74.8945 166.672 75.0508 163.781 74.6211 160.93C74.1523 158.117 72.9805 156.711 71.1055 156.711ZM100.461 143.762C104.523 143.762 107.512 145.969 109.426 150.383L102.805 157.648C101.906 156.711 100.871 156.242 99.6992 156.242C97.6289 156.242 95.4805 158.02 93.2539 161.574C91.418 164.504 90.2266 167.238 89.6797 169.777C89.4062 170.988 89.2695 172.082 89.2695 173.059C89.2695 175.676 90.2266 177.473 92.1406 178.449C92.7656 178.762 93.4297 178.918 94.1328 178.918C96.1641 178.918 98.293 177.414 100.52 174.406L102.395 181.379C98.5273 185.676 94.6016 187.824 90.6172 187.824C86.5547 187.824 83.5859 185.676 81.7109 181.379C80.5781 178.879 80.0117 176.086 80.0117 173C80.0117 170.734 80.3047 168.332 80.8906 165.793C82.0625 160.598 84.2891 155.852 87.5703 151.555C91.5156 146.359 95.8125 143.762 100.461 143.762ZM130.754 157.004C129.504 157.473 128.02 158.039 126.301 158.703L121.906 160.402C121.906 158.566 121.398 157.648 120.383 157.648C118.938 157.648 117.492 158.469 116.047 160.109C115.031 161.32 114.602 162.492 114.758 163.625C114.875 164.367 115.617 164.738 116.984 164.738C117.727 164.738 118.703 164.621 119.914 164.387C121.594 164.035 123.078 163.859 124.367 163.859C127.648 163.859 129.562 164.992 130.109 167.258C130.266 167.961 130.344 168.703 130.344 169.484C130.344 171.984 129.406 174.68 127.531 177.57C125.109 181.359 121.711 184.543 117.336 187.121C115.031 188.488 112.766 189.172 110.539 189.172C108.508 189.172 106.516 188.605 104.562 187.473C105.539 185.129 107.102 181.672 109.25 177.102C110.5 177.961 111.828 178.391 113.234 178.391C113.859 178.391 114.504 178.293 115.168 178.098C116.379 177.785 117.531 177.336 118.625 176.75C120.188 175.891 120.969 175.012 120.969 174.113C120.969 173.137 120.168 172.648 118.566 172.648C117.473 172.648 115.871 172.883 113.762 173.352C111.691 173.781 110.109 173.996 109.016 173.996C107.57 173.996 106.457 173.723 105.676 173.176C104.152 172.16 103.527 170.578 103.801 168.43C104.309 164.094 107.102 159.074 112.18 153.371C117.375 147.512 121.848 144.445 125.598 144.172C129.23 143.938 131.047 146.672 131.047 152.375C131.047 153.742 130.949 155.285 130.754 157.004Z" fill="#75B709"/>
<path d="M34.1035 18.0039L35.1569 20.8129L36.8769 20.1679L37.0843 18.3426L34.1035 18.0039ZM29.6504 19.7031L28.5692 16.9047L28.5685 16.905L29.6504 19.7031ZM25.2559 21.4023H22.2559V25.7788L26.3378 24.2005L25.2559 21.4023ZM19.3965 21.1094L17.1454 19.1263L17.1213 19.1536L17.0979 19.1815L19.3965 21.1094ZM18.1074 24.625L15.1356 25.0349L15.1396 25.0639L15.1441 25.0929L18.1074 24.625ZM23.2637 25.3867L23.8337 28.3321L23.856 28.3277L23.8783 28.3231L23.2637 25.3867ZM33.459 28.2578L36.3875 27.607L36.3816 27.5804L36.3752 27.5539L33.459 28.2578ZM30.8809 38.5703L28.364 36.9377L28.3585 36.9462L28.3531 36.9546L30.8809 38.5703ZM20.6855 48.1211L19.1625 45.5365L19.1549 45.5409L20.6855 48.1211ZM7.91211 48.4727L5.14288 47.3188L4.13087 49.7476L6.40696 51.0677L7.91211 48.4727ZM12.5996 38.1016L14.2992 35.6294L11.3877 33.6278L9.88463 36.8253L12.5996 38.1016ZM18.5176 39.0977L17.7679 36.1928L17.7193 36.2054L17.6711 36.2196L18.5176 39.0977ZM21.9746 37.75L23.3913 40.3944L23.4059 40.3866L23.4204 40.3786L21.9746 37.75ZM17.1113 34.3516L17.721 37.289L17.7416 37.2847L17.7621 37.2801L17.1113 34.3516ZM9.02539 34.1758L10.7458 31.7181L10.7179 31.6985L10.6895 31.6796L9.02539 34.1758ZM7.15039 29.4297L10.1264 29.8084L10.1283 29.7936L10.13 29.7787L7.15039 29.4297ZM15.5293 14.3711L17.7698 16.3661L17.774 16.3614L15.5293 14.3711ZM28.9473 5.17188L28.7541 2.1781L28.7416 2.17891L28.7291 2.17982L28.9473 5.17188ZM34.1035 18.0039L33.0501 15.1949C31.7881 15.6682 30.294 16.2383 28.5692 16.9047L29.6504 19.7031L30.7316 22.5015C32.4443 21.8398 33.9189 21.2771 35.1569 20.8129L34.1035 18.0039ZM29.6504 19.7031L28.5685 16.905L24.1739 18.6042L25.2559 21.4023L26.3378 24.2005L30.7323 22.5012L29.6504 19.7031ZM25.2559 21.4023H28.2559C28.2559 20.3061 28.1212 19.0075 27.5001 17.8847C27.1645 17.278 26.6634 16.6825 25.9473 16.251C25.2261 15.8164 24.4529 15.6484 23.7324 15.6484V18.6484V21.6484C23.5197 21.6484 23.1909 21.5952 22.8506 21.3901C22.5153 21.1881 22.3316 20.9368 22.2499 20.7891C22.1777 20.6585 22.1872 20.6159 22.2104 20.7415C22.2324 20.861 22.2559 21.0731 22.2559 21.4023H25.2559ZM23.7324 18.6484V15.6484C21.0636 15.6484 18.8668 17.1723 17.1454 19.1263L19.3965 21.1094L21.6476 23.0925C22.8168 21.7652 23.5106 21.6484 23.7324 21.6484V18.6484ZM19.3965 21.1094L17.0979 19.1815C15.7533 20.7847 14.8245 22.7797 15.1356 25.0349L18.1074 24.625L21.0793 24.2151C21.0778 24.2046 21.0084 23.8559 21.6951 23.0372L19.3965 21.1094ZM18.1074 24.625L15.1441 25.0929C15.3713 26.5315 16.2778 27.577 17.4103 28.1432C18.384 28.6301 19.4505 28.7383 20.334 28.7383V25.7383V22.7383C20.1213 22.7383 19.9982 22.7233 19.9456 22.7141C19.8893 22.7042 19.9571 22.7085 20.0936 22.7767C20.2398 22.8498 20.4733 23.0017 20.6873 23.2789C20.9085 23.5655 21.027 23.8805 21.0707 24.1571L18.1074 24.625ZM20.334 25.7383V28.7383C21.3514 28.7383 22.5407 28.5823 23.8337 28.3321L23.2637 25.3867L22.6936 22.4414C21.5648 22.6599 20.801 22.7383 20.334 22.7383V25.7383ZM23.2637 25.3867L23.8783 28.3231C25.4178 28.0009 26.6892 27.8594 27.7168 27.8594V24.8594V21.8594C26.1663 21.8594 24.4689 22.0695 22.6491 22.4503L23.2637 25.3867ZM27.7168 24.8594V27.8594C29.0584 27.8594 29.7603 28.0984 30.0853 28.2907C30.3085 28.4228 30.4493 28.5745 30.5427 28.9617L33.459 28.2578L36.3752 27.5539C35.9218 25.6755 34.8322 24.128 33.1412 23.1273C31.5522 22.1868 29.6565 21.8594 27.7168 21.8594V24.8594ZM33.459 28.2578L30.5304 28.9086C30.6354 29.3809 30.6934 29.9037 30.6934 30.4844H33.6934H36.6934C36.6934 29.5025 36.5951 28.541 36.3875 27.607L33.459 28.2578ZM33.6934 30.4844H30.6934C30.6934 32.2244 30.0388 34.3556 28.364 36.9377L30.8809 38.5703L33.3977 40.2029C35.4729 37.0037 36.6934 33.7443 36.6934 30.4844H33.6934ZM30.8809 38.5703L28.3531 36.9546C26.2165 40.2974 23.1841 43.1666 19.1625 45.5365L20.6855 48.1211L22.2086 50.7057C26.937 47.9193 30.7015 44.4213 33.4086 40.186L30.8809 38.5703ZM20.6855 48.1211L19.1549 45.5409C17.219 46.6894 15.4764 47.1719 13.8887 47.1719V50.1719V53.1719C16.7541 53.1719 19.5427 52.2872 22.2162 50.7013L20.6855 48.1211ZM13.8887 50.1719V47.1719C12.4434 47.1719 10.9654 46.7755 9.41726 45.8776L7.91211 48.4727L6.40696 51.0677C8.76509 52.4355 11.2715 53.1719 13.8887 53.1719V50.1719ZM7.91211 48.4727L10.6813 49.6265C11.6312 47.3467 13.1705 43.9389 15.3146 39.3778L12.5996 38.1016L9.88463 36.8253C7.73185 41.4048 6.1461 44.9111 5.14288 47.3188L7.91211 48.4727ZM12.5996 38.1016L10.9 40.5737C12.6088 41.7485 14.5225 42.3906 16.584 42.3906V39.3906V36.3906C15.8329 36.3906 15.0905 36.1734 14.2992 35.6294L12.5996 38.1016ZM16.584 39.3906V42.3906C17.5245 42.3906 18.4543 42.2433 19.3641 41.9758L18.5176 39.0977L17.6711 36.2196C17.2527 36.3426 16.8935 36.3906 16.584 36.3906V39.3906ZM18.5176 39.0977L19.2672 42.0025C20.7082 41.6306 22.0847 41.0944 23.3913 40.3944L21.9746 37.75L20.5579 35.1056C19.677 35.5775 18.7488 35.9397 17.7679 36.1928L18.5176 39.0977ZM21.9746 37.75L23.4204 40.3786C24.3628 39.8603 25.2712 39.2308 25.9746 38.4394C26.6993 37.6241 27.3184 36.5001 27.3184 35.1133H24.3184H21.3184C21.3184 34.8897 21.3695 34.7036 21.4255 34.5762C21.4772 34.4586 21.5199 34.4198 21.4902 34.4532C21.4599 34.4872 21.378 34.5697 21.2129 34.6922C21.0494 34.8135 20.8259 34.958 20.5289 35.1214L21.9746 37.75ZM24.3184 35.1133H27.3184C27.3184 33.6314 26.6171 32.2688 25.2796 31.4533C24.183 30.7846 22.924 30.6484 21.916 30.6484V33.6484V36.6484C22.173 36.6484 22.3151 36.6688 22.3695 36.6799C22.4278 36.6917 22.3283 36.6811 22.156 36.576C21.9638 36.4588 21.7181 36.2448 21.5359 35.9114C21.3567 35.5836 21.3184 35.2862 21.3184 35.1133H24.3184ZM21.916 33.6484V30.6484C20.4824 30.6484 18.6191 30.9433 16.4605 31.423L17.1113 34.3516L17.7621 37.2801C19.8223 36.8223 21.1622 36.6484 21.916 36.6484V33.6484ZM17.1113 34.3516L16.5017 31.4142C14.4829 31.8331 13.1438 31.9961 12.3652 31.9961V34.9961V37.9961C13.7742 37.9961 15.5991 37.7294 17.721 37.289L17.1113 34.3516ZM12.3652 34.9961V31.9961C11.2374 31.9961 10.8239 31.7728 10.7458 31.7181L9.02539 34.1758L7.305 36.6335C8.78934 37.6725 10.6025 37.9961 12.3652 37.9961V34.9961ZM9.02539 34.1758L10.6895 31.6796C10.3955 31.4836 10.2747 31.3037 10.2042 31.1253C10.1215 30.9158 10.0364 30.5152 10.1264 29.8084L7.15039 29.4297L4.1744 29.0509C3.99091 30.4926 4.08166 31.9573 4.62391 33.3298C5.17839 34.7334 6.13187 35.8523 7.36129 36.6719L9.02539 34.1758ZM7.15039 29.4297L10.13 29.7787C10.5301 26.3624 12.8299 21.914 17.7698 16.3661L15.5293 14.3711L13.2888 12.3761C8.07246 18.2344 4.78628 23.8251 4.17076 29.0807L7.15039 29.4297ZM15.5293 14.3711L17.774 16.3614C20.2744 13.5414 22.5096 11.4997 24.4766 10.1511C26.4571 8.79334 28.0042 8.24861 29.1654 8.16393L28.9473 5.17188L28.7291 2.17982C26.1404 2.36858 23.5761 3.49377 21.0839 5.20243C18.5783 6.92023 15.9795 9.34138 13.2846 12.3808L15.5293 14.3711ZM28.9473 5.17188L29.1404 8.16565C30.0268 8.10847 30.2955 8.34594 30.5353 8.70685C30.9545 9.33796 31.3965 10.7299 31.3965 13.375H34.3965H37.3965C37.3965 10.317 36.9302 7.49016 35.5331 5.3869C33.9564 3.01343 31.5006 2.00091 28.7541 2.1781L28.9473 5.17188ZM34.3965 13.375H31.3965C31.3965 14.604 31.3084 16.0309 31.1227 17.6652L34.1035 18.0039L37.0843 18.3426C37.2892 16.5394 37.3965 14.8804 37.3965 13.375H34.3965ZM64.1035 10.0938L61.2926 11.1419L61.2964 11.1522L64.1035 10.0938ZM64.2207 26.8516L67.1211 27.6181L67.1241 27.607L67.1269 27.5958L64.2207 26.8516ZM56.7207 41.9688L54.3451 40.1367L54.3447 40.1372L56.7207 41.9688ZM34.0449 43.4922L31.2399 44.5562L31.2418 44.5612L34.0449 43.4922ZM34.0449 26.8516L36.9448 27.6202L36.9467 27.613L34.0449 26.8516ZM41.4863 11.6758L39.1042 9.85221L39.101 9.85643L41.4863 11.6758ZM46.6426 22.9844L49.1603 24.6156L49.1688 24.6026L49.177 24.5895L46.6426 22.9844ZM42.8926 31.1289L39.9925 30.3612L39.9872 30.3812L39.9821 30.4013L42.8926 31.1289ZM43.5371 38.8633L41.1592 40.6924L41.1728 40.71L41.1866 40.7275L43.5371 38.8633ZM53.2051 37.1055L50.8234 35.2812L50.8197 35.2861L53.2051 37.1055ZM56.252 30.6016L53.3438 29.8648L53.3415 29.874L56.252 30.6016ZM56.7207 21.9297L59.6872 21.4827L59.6837 21.4596L59.6799 21.4365L56.7207 21.9297ZM55.3145 3.17969V6.17969C56.7909 6.17969 57.8851 6.57601 58.7623 7.26607C59.6768 7.98541 60.5656 9.1924 61.2926 11.1419L64.1035 10.0938L66.9145 9.0456C65.9226 6.38573 64.4873 4.13568 62.472 2.55034C60.4195 0.935706 57.9786 0.179688 55.3145 0.179688V3.17969ZM64.1035 10.0938L61.2964 11.1522C62.053 13.1586 62.4512 15.4122 62.4512 17.9453H65.4512H68.4512C68.4512 14.7753 67.951 11.7945 66.9106 9.03534L64.1035 10.0938ZM65.4512 17.9453H62.4512C62.4512 20.3828 62.085 23.0985 61.3145 26.1073L64.2207 26.8516L67.1269 27.5958C67.997 24.1983 68.4512 20.9766 68.4512 17.9453H65.4512ZM64.2207 26.8516L61.3203 26.085C59.9801 31.1559 57.6628 35.8346 54.3451 40.1367L56.7207 41.9688L59.0963 43.8008C62.888 38.8842 65.5706 33.4848 67.1211 27.6181L64.2207 26.8516ZM56.7207 41.9688L54.3447 40.1372C50.301 45.383 46.4909 47.4062 42.9512 47.4062V50.4062V53.4062C49.099 53.4062 54.4685 49.8045 59.0967 43.8003L56.7207 41.9688ZM42.9512 50.4062V47.4062C41.4486 47.4062 40.3285 47.0059 39.4295 46.308C38.4952 45.5827 37.5908 44.371 36.848 42.4232L34.0449 43.4922L31.2418 44.5612C32.2568 47.2227 33.7158 49.4681 35.7502 51.0475C37.8199 52.6542 40.2741 53.4062 42.9512 53.4062V50.4062ZM34.0449 43.4922L36.8499 42.4282C36.1384 40.5524 35.7559 38.3814 35.7559 35.875H32.7559H29.7559C29.7559 38.9936 30.2327 41.9007 31.2399 44.5561L34.0449 43.4922ZM32.7559 35.875H35.7559C35.7559 33.4085 36.1385 30.662 36.9448 27.6202L34.0449 26.8516L31.1451 26.0829C30.2326 29.5255 29.7559 32.7947 29.7559 35.875H32.7559ZM34.0449 26.8516L36.9467 27.613C38.2896 22.4955 40.5919 17.7953 43.8717 13.4951L41.4863 11.6758L39.101 9.85643C35.3495 14.775 32.6909 20.192 31.1432 26.0901L34.0449 26.8516ZM41.4863 11.6758L43.8685 13.4994C47.9098 8.2201 51.738 6.17969 55.3145 6.17969V3.17969V0.179688C49.1253 0.179688 43.7347 3.80334 39.1042 9.85221L41.4863 11.6758ZM53.2051 17.7109V14.7109C49.3641 14.7109 46.3954 17.7677 44.1081 21.3792L46.6426 22.9844L49.177 24.5895C51.3429 21.1698 52.7492 20.7109 53.2051 20.7109V17.7109ZM46.6426 22.9844L44.1248 21.3532C42.1895 24.3403 40.7911 27.344 39.9925 30.3612L42.8926 31.1289L45.7927 31.8966C46.4003 29.6013 47.5019 27.1753 49.1603 24.6156L46.6426 22.9844ZM42.8926 31.1289L39.9821 30.4013C39.5868 31.9829 39.3652 33.5023 39.3652 34.9375H42.3652H45.3652C45.3652 34.1071 45.4953 33.0874 45.803 31.8565L42.8926 31.1289ZM42.3652 34.9375H39.3652C39.3652 37.0323 39.8827 39.033 41.1592 40.6924L43.5371 38.8633L45.915 37.0341C45.629 36.6624 45.3652 36.0458 45.3652 34.9375H42.3652ZM43.5371 38.8633L41.1866 40.7275C42.7205 42.6615 44.8822 43.5625 47.2871 43.5625V40.5625V37.5625C46.4889 37.5625 46.1506 37.3307 45.8876 36.9991L43.5371 38.8633ZM47.2871 40.5625V43.5625C50.6969 43.5625 53.465 41.7115 55.5904 38.9248L53.2051 37.1055L50.8197 35.2861C49.4295 37.1089 48.2523 37.5625 47.2871 37.5625V40.5625ZM53.2051 37.1055L55.5867 38.9297C57.2694 36.7329 58.4493 34.1814 59.1624 31.3292L56.252 30.6016L53.3415 29.874C52.8046 32.0217 51.9533 33.8062 50.8234 35.2812L53.2051 37.1055ZM56.252 30.6016L59.1601 31.3383C59.9955 28.0407 60.1792 24.7476 59.6872 21.4827L56.7207 21.9297L53.7542 22.3767C54.1216 24.8149 53.9928 27.303 53.3438 29.8648L56.252 30.6016ZM56.7207 21.9297L59.6799 21.4365C59.4025 19.7723 58.8614 18.1249 57.7949 16.8451C56.6232 15.439 55.0079 14.7109 53.2051 14.7109V17.7109V20.7109C53.291 20.7109 53.2797 20.725 53.2223 20.6985C53.163 20.6711 53.1515 20.6453 53.1856 20.6862C53.2909 20.8126 53.5701 21.2745 53.7615 22.4229L56.7207 21.9297ZM68.9082 7.80859L68.3133 4.86817L66.3072 5.27402L65.9534 7.28993L68.9082 7.80859ZM79.0449 5.75781L82.0387 5.95096L82.291 2.04031L78.45 2.81739L79.0449 5.75781ZM79.4551 24.918L82.4444 24.6646L82.4437 24.6568L79.4551 24.918ZM80.334 30.4844L77.4434 31.2873L83.2894 30.9997L80.334 30.4844ZM84.3184 7.63281L83.7696 4.68342L81.7209 5.06458L81.3629 7.11751L84.3184 7.63281ZM94.3965 5.75781L97.3004 6.51095L98.4844 1.94579L93.8478 2.80842L94.3965 5.75781ZM86.4277 46.4805L87.2326 49.3705L89.1902 48.8253L89.4101 46.8051L86.4277 46.4805ZM77.1699 49.0586L74.4866 50.4002L75.5925 52.612L77.9747 51.9486L77.1699 49.0586ZM76.4082 47.0078L73.5778 48.0023L73.5832 48.0177L73.5888 48.033L76.4082 47.0078ZM73.3613 38.3359L76.1917 37.3415L76.1874 37.3292L76.183 37.317L73.3613 38.3359ZM72.4824 35.6406L75.4242 35.0523L69.5288 35.115L72.4824 35.6406ZM70.5488 49.0586L71.4109 51.9321L73.3175 51.3601L73.5314 49.381L70.5488 49.0586ZM61.1738 51.8711L58.219 51.3524L57.3783 56.1418L62.0359 54.7446L61.1738 51.8711ZM68.9082 7.80859L69.5031 10.749L79.6398 8.69824L79.0449 5.75781L78.45 2.81739L68.3133 4.86817L68.9082 7.80859ZM79.0449 5.75781L76.0511 5.56467C75.9668 6.87222 75.9277 8.66664 75.9277 10.9141H78.9277H81.9277C81.9277 8.70836 81.9668 7.06528 82.0387 5.95096L79.0449 5.75781ZM78.9277 10.9141H75.9277C75.9277 16.2883 76.1054 21.0468 76.4665 25.1791L79.4551 24.918L82.4437 24.6568C82.1016 20.7423 81.9277 16.1648 81.9277 10.9141H78.9277ZM79.4551 24.918L76.4658 25.1713C76.6689 27.5677 76.9827 29.6287 77.4434 31.2873L80.334 30.4844L83.2245 29.6814C82.904 28.5275 82.6319 26.8777 82.4444 24.6646L79.4551 24.918ZM80.334 30.4844L83.2894 30.9997L87.2738 8.14812L84.3184 7.63281L81.3629 7.11751L77.3786 29.9691L80.334 30.4844ZM84.3184 7.63281L84.8671 10.5822L94.9452 8.7072L94.3965 5.75781L93.8478 2.80842L83.7696 4.68342L84.3184 7.63281ZM94.3965 5.75781L91.4926 5.00467C87.4068 20.7584 84.7159 34.4825 83.4454 46.1559L86.4277 46.4805L89.4101 46.8051C90.6396 35.5097 93.2612 22.0854 97.3004 6.51095L94.3965 5.75781ZM86.4277 46.4805L85.6229 43.5904L76.3651 46.1686L77.1699 49.0586L77.9747 51.9486L87.2326 49.3705L86.4277 46.4805ZM77.1699 49.0586L79.8532 47.717C79.9098 47.8301 79.9437 47.919 79.9265 47.8765C79.924 47.8704 79.9159 47.85 79.9004 47.8095C79.8699 47.7303 79.8245 47.6098 79.7625 47.4427C79.6391 47.1107 79.4613 46.6252 79.2276 45.9826L76.4082 47.0078L73.5888 48.033C73.8239 48.6795 74.0073 49.1803 74.1379 49.5319C74.22 49.7529 74.3726 50.1722 74.4866 50.4002L77.1699 49.0586ZM76.4082 47.0078L79.2386 46.0134L76.1917 37.3415L73.3613 38.3359L70.5309 39.3304L73.5778 48.0023L76.4082 47.0078ZM73.3613 38.3359L76.183 37.317C75.9344 36.6286 75.7458 36.0849 75.6129 35.6774C75.5465 35.4737 75.4979 35.316 75.4642 35.1989C75.4276 35.0716 75.4202 35.0324 75.4242 35.0523L72.4824 35.6406L69.5407 36.229C69.6722 36.8867 70.0571 38.0186 70.5397 39.3549L73.3613 38.3359ZM72.4824 35.6406L69.5288 35.115C68.6974 39.7869 68.0428 44.3274 67.5662 48.7361L70.5488 49.0586L73.5314 49.381C73.9923 45.1179 74.6268 40.7131 75.436 36.1663L72.4824 35.6406ZM70.5488 49.0586L69.6868 46.1851L60.3118 48.9976L61.1738 51.8711L62.0359 54.7446L71.4109 51.9321L70.5488 49.0586ZM61.1738 51.8711L64.1287 52.3898L71.863 8.32726L68.9082 7.80859L65.9534 7.28993L58.219 51.3524L61.1738 51.8711ZM96.7988 7.63281L96.2501 4.68342L94.2005 5.06474L93.8432 7.11861L96.7988 7.63281ZM106.877 5.75781L109.781 6.51095L110.965 1.94579L106.328 2.80842L106.877 5.75781ZM98.9082 46.4805L99.7083 49.3718L101.67 48.8289L101.891 46.8051L98.9082 46.4805ZM89.5918 49.0586L86.6362 48.5444L85.8238 53.2141L90.3919 51.9499L89.5918 49.0586ZM96.7988 7.63281L97.3475 10.5822L107.426 8.7072L106.877 5.75781L106.328 2.80842L96.2501 4.68342L96.7988 7.63281ZM106.877 5.75781L103.973 5.00467C99.8873 20.7584 97.1964 34.4825 95.9258 46.1559L98.9082 46.4805L101.891 46.8051C103.12 35.5097 105.742 22.0854 109.781 6.51095L106.877 5.75781ZM98.9082 46.4805L98.1081 43.5891L88.7917 46.1673L89.5918 49.0586L90.3919 51.9499L99.7083 49.3718L98.9082 46.4805ZM89.5918 49.0586L92.5474 49.5728L99.7544 8.14701L96.7988 7.63281L93.8432 7.11861L86.6362 48.5444L89.5918 49.0586ZM131.896 11.3828L134.114 13.4035L135.421 11.9694L134.649 10.1893L131.896 11.3828ZM125.275 18.6484L123.109 20.7242L125.331 23.0418L127.493 20.6691L125.275 18.6484ZM115.725 22.5742L118.267 24.1673L118.267 24.1667L115.725 22.5742ZM112.15 30.7773L115.077 31.4381L115.08 31.4236L115.083 31.409L112.15 30.7773ZM114.611 39.4492L113.248 42.1215L113.259 42.127L113.27 42.1325L114.611 39.4492ZM122.99 35.4062L125.887 34.6272L124.274 28.6293L120.579 33.6213L122.99 35.4062ZM124.865 42.3789L127.095 44.3858L128.186 43.1741L127.762 41.5999L124.865 42.3789ZM104.182 42.3789L106.931 41.1791L106.923 41.1598L106.914 41.1407L104.182 42.3789ZM103.361 26.793L106.285 27.4675L106.286 27.4603L106.288 27.4531L103.361 26.793ZM110.041 12.5547L112.425 14.3754L112.43 14.369L110.041 12.5547ZM122.932 4.76172V7.76172C124.385 7.76172 125.508 8.14379 126.437 8.83018C127.399 9.5401 128.337 10.7144 129.144 12.5763L131.896 11.3828L134.649 10.1893C133.542 7.63715 132.029 5.50091 130.002 4.00381C127.943 2.48316 125.541 1.76172 122.932 1.76172V4.76172ZM131.896 11.3828L129.679 9.36213L123.058 16.6278L125.275 18.6484L127.493 20.6691L134.114 13.4035L131.896 11.3828ZM125.275 18.6484L127.441 16.5727C126.045 15.1152 124.252 14.2422 122.17 14.2422V17.2422V20.2422C122.431 20.2422 122.709 20.3067 123.109 20.7242L125.275 18.6484ZM122.17 17.2422V14.2422C120.227 14.2422 118.519 15.0846 117.094 16.2637C115.681 17.4322 114.389 19.0553 113.182 20.9817L115.725 22.5742L118.267 24.1667C119.287 22.5384 120.182 21.4955 120.918 20.8867C121.641 20.2885 122.042 20.2422 122.17 20.2422V17.2422ZM115.725 22.5742L113.183 20.9812C111.219 24.1143 109.858 27.1739 109.218 30.1457L112.15 30.7773L115.083 31.409C115.537 29.3026 116.558 26.8935 118.267 24.1673L115.725 22.5742ZM112.15 30.7773L109.224 30.1166C108.914 31.489 108.74 32.8093 108.74 34.0586H111.74H114.74C114.74 33.3547 114.84 32.4876 115.077 31.4381L112.15 30.7773ZM111.74 34.0586H108.74C108.74 37.5077 110.091 40.5107 113.248 42.1215L114.611 39.4492L115.975 36.7769C115.304 36.4346 114.74 35.8439 114.74 34.0586H111.74ZM114.611 39.4492L113.27 42.1325C114.314 42.6546 115.438 42.918 116.604 42.918V39.918V36.918C116.363 36.918 116.159 36.8688 115.953 36.7659L114.611 39.4492ZM116.604 39.918V42.918C120.15 42.918 123.061 40.3532 125.401 37.1912L122.99 35.4062L120.579 33.6213C118.467 36.475 117.12 36.918 116.604 36.918V39.918ZM122.99 35.4062L120.093 36.1853L121.968 43.158L124.865 42.3789L127.762 41.5999L125.887 34.6272L122.99 35.4062ZM124.865 42.3789L122.635 40.372C119.076 44.3269 115.897 45.8242 113.088 45.8242V48.8242V51.8242C118.247 51.8242 122.92 49.0246 127.095 44.3858L124.865 42.3789ZM113.088 48.8242V45.8242C111.616 45.8242 110.491 45.4464 109.573 44.7825C108.629 44.0989 107.713 42.971 106.931 41.1791L104.182 42.3789L101.432 43.5787C102.525 46.0837 104.032 48.1785 106.056 49.6432C108.107 51.1278 110.497 51.8242 113.088 51.8242V48.8242ZM104.182 42.3789L106.914 41.1407C105.978 39.0754 105.482 36.7121 105.482 34H102.482H99.4824C99.4824 37.4598 100.119 40.6824 101.449 43.6171L104.182 42.3789ZM102.482 34H105.482C105.482 31.9923 105.742 29.8177 106.285 27.4675L103.361 26.793L100.438 26.1184C99.8086 28.8464 99.4824 31.4764 99.4824 34H102.482ZM103.361 26.793L106.288 27.4531C107.363 22.6857 109.402 18.3343 112.425 14.3754L110.041 12.5547L107.657 10.7339C104.117 15.3688 101.703 20.5096 100.435 26.1329L103.361 26.793ZM110.041 12.5547L112.43 14.369C116.051 9.60077 119.561 7.76172 122.932 7.76172V4.76172V1.76172C117.006 1.76172 111.921 5.11798 107.652 10.7403L110.041 12.5547ZM77.5801 119.898L79.1658 122.445L81.0311 121.284L80.4865 119.155L77.5801 119.898ZM68.2637 125.699L65.314 126.247L66.1164 130.57L69.8493 128.246L68.2637 125.699ZM67.209 120.016L64.2583 120.558L64.2593 120.563L67.209 120.016ZM66.1543 114.215L69.1068 113.683L67.6098 105.367L63.5276 112.766L66.1543 114.215ZM63.3418 119.312L60.7151 117.863L60.7116 117.87L60.7081 117.876L63.3418 119.312ZM60.5879 124.352L60.3302 127.34L62.2795 127.509L63.2192 125.793L60.5879 124.352ZM50.3926 123.473L47.8578 121.868L45.2182 126.038L50.1349 126.462L50.3926 123.473ZM63.6348 102.555L66.1695 104.159L66.8472 103.089L66.5524 101.857L63.6348 102.555ZM58.8887 85.5039L57.086 83.1059L55.3682 84.3973L56.0382 86.4392L58.8887 85.5039ZM67.1504 79.293L70.0568 78.5495L68.9423 74.1927L65.3477 76.895L67.1504 79.293ZM70.373 91.8906L67.4666 92.6341L69.1824 99.3413L72.903 93.5029L70.373 91.8906ZM77.9902 79.9375L78.991 77.1093L76.7422 76.3136L75.4603 78.3253L77.9902 79.9375ZM85.6074 82.6328L88.0682 84.3489L90.321 81.1184L86.6082 79.8046L85.6074 82.6328ZM73.0684 102.262L70.4847 100.737L69.8548 101.804L70.1619 103.005L73.0684 102.262ZM77.5801 119.898L75.9944 117.352L66.678 123.153L68.2637 125.699L69.8493 128.246L79.1658 122.445L77.5801 119.898ZM68.2637 125.699L71.2133 125.152L70.1586 119.468L67.209 120.016L64.2593 120.563L65.314 126.247L68.2637 125.699ZM67.209 120.016L70.1596 119.474C69.8087 117.563 69.4578 115.633 69.1068 113.683L66.1543 114.215L63.2017 114.746C63.5539 116.703 63.9061 118.64 64.2583 120.558L67.209 120.016ZM66.1543 114.215L63.5276 112.766L60.7151 117.863L63.3418 119.312L65.9685 120.762L68.781 115.664L66.1543 114.215ZM63.3418 119.312L60.7081 117.876C59.7714 119.593 58.8542 121.272 57.9566 122.911L60.5879 124.352L63.2192 125.793C64.1185 124.15 65.0372 122.469 65.9755 120.749L63.3418 119.312ZM60.5879 124.352L60.8456 121.363L50.6502 120.484L50.3926 123.473L50.1349 126.462L60.3302 127.34L60.5879 124.352ZM50.3926 123.473L52.9274 125.077L66.1695 104.159L63.6348 102.555L61.1 100.95L47.8578 121.868L50.3926 123.473ZM63.6348 102.555L66.5524 101.857C65.0142 95.4278 63.4107 89.6628 61.7391 84.5686L58.8887 85.5039L56.0382 86.4392C57.6479 91.345 59.2084 96.9472 60.7171 103.253L63.6348 102.555ZM58.8887 85.5039L60.6914 87.9019L68.9531 81.6909L67.1504 79.293L65.3477 76.895L57.086 83.1059L58.8887 85.5039ZM67.1504 79.293L64.244 80.0365L67.4666 92.6341L70.373 91.8906L73.2795 91.1471L70.0568 78.5495L67.1504 79.293ZM70.373 91.8906L72.903 93.5029L80.5202 81.5497L77.9902 79.9375L75.4603 78.3253L67.8431 90.2784L70.373 91.8906ZM77.9902 79.9375L76.9895 82.7657L84.6067 85.461L85.6074 82.6328L86.6082 79.8046L78.991 77.1093L77.9902 79.9375ZM85.6074 82.6328L83.1467 80.9168C78.957 86.9247 74.7366 93.5325 70.4847 100.737L73.0684 102.262L75.652 103.786C79.8377 96.6941 83.9766 90.216 88.0682 84.3489L85.6074 82.6328ZM73.0684 102.262L70.1619 103.005L74.6737 120.642L77.5801 119.898L80.4865 119.155L75.9748 101.518L73.0684 102.262ZM32.8438 150.383L35.0611 152.404L36.368 150.969L35.5961 149.189L32.8438 150.383ZM26.2227 157.648L24.0567 159.724L26.2778 162.042L28.44 159.669L26.2227 157.648ZM16.6719 161.574L19.214 163.167L19.2143 163.167L16.6719 161.574ZM13.0977 169.777L16.024 170.438L16.0273 170.424L16.0304 170.409L13.0977 169.777ZM15.5586 178.449L14.1952 181.122L14.206 181.127L14.217 181.133L15.5586 178.449ZM23.9375 174.406L26.8346 173.627L25.2217 167.629L21.5263 172.621L23.9375 174.406ZM25.8125 181.379L28.0424 183.386L29.1329 182.174L28.7096 180.6L25.8125 181.379ZM5.12891 181.379L7.87852 180.179L7.87013 180.16L7.86147 180.141L5.12891 181.379ZM4.30859 165.793L7.23177 166.468L7.23344 166.46L7.23507 166.453L4.30859 165.793ZM10.9883 151.555L13.3726 153.375L13.3775 153.369L10.9883 151.555ZM23.8789 143.762V146.762C25.3319 146.762 26.4554 147.144 27.3847 147.83C28.3459 148.54 29.284 149.714 30.0914 151.576L32.8438 150.383L35.5961 149.189C34.4894 146.637 32.9763 144.501 30.9493 143.004C28.8904 141.483 26.4884 140.762 23.8789 140.762V143.762ZM32.8438 150.383L30.6264 148.362L24.0053 155.628L26.2227 157.648L28.44 159.669L35.0611 152.404L32.8438 150.383ZM26.2227 157.648L28.3886 155.573C26.9918 154.115 25.1995 153.242 23.1172 153.242V156.242V159.242C23.3786 159.242 23.6566 159.307 24.0567 159.724L26.2227 157.648ZM23.1172 156.242V153.242C21.1747 153.242 19.4661 154.085 18.0409 155.264C16.6283 156.432 15.3361 158.055 14.1295 159.982L16.6719 161.574L19.2143 163.167C20.2342 161.538 21.1295 160.495 21.8654 159.887C22.5886 159.288 22.9893 159.242 23.1172 159.242V156.242ZM16.6719 161.574L14.1298 159.981C12.1664 163.114 10.805 166.174 10.1649 169.146L13.0977 169.777L16.0304 170.409C16.4841 168.303 17.5055 165.894 19.214 163.167L16.6719 161.574ZM13.0977 169.777L10.1713 169.117C9.86143 170.489 9.6875 171.809 9.6875 173.059H12.6875H15.6875C15.6875 172.355 15.787 171.488 16.024 170.438L13.0977 169.777ZM12.6875 173.059H9.6875C9.6875 176.508 11.0381 179.511 14.1952 181.122L15.5586 178.449L16.922 175.777C16.251 175.435 15.6875 174.844 15.6875 173.059H12.6875ZM15.5586 178.449L14.217 181.133C15.2612 181.655 16.3849 181.918 17.5508 181.918V178.918V175.918C17.3104 175.918 17.106 175.869 16.9002 175.766L15.5586 178.449ZM17.5508 178.918V181.918C21.097 181.918 24.008 179.353 26.3487 176.191L23.9375 174.406L21.5263 172.621C19.4138 175.475 18.0671 175.918 17.5508 175.918V178.918ZM23.9375 174.406L21.0404 175.185L22.9154 182.158L25.8125 181.379L28.7096 180.6L26.8346 173.627L23.9375 174.406ZM25.8125 181.379L23.5826 179.372C20.0232 183.327 16.8443 184.824 14.0352 184.824V187.824V190.824C19.1947 190.824 23.8674 188.025 28.0424 183.386L25.8125 181.379ZM14.0352 187.824V184.824C12.5636 184.824 11.4379 184.446 10.5205 183.783C9.57583 183.099 8.66045 181.971 7.87852 180.179L5.12891 181.379L2.37929 182.579C3.47236 185.084 4.97886 187.178 7.00291 188.643C9.05431 190.128 11.4442 190.824 14.0352 190.824V187.824ZM5.12891 181.379L7.86147 180.141C6.92564 178.075 6.42969 175.712 6.42969 173H3.42969H0.429688C0.429688 176.46 1.06655 179.682 2.39635 182.617L5.12891 181.379ZM3.42969 173H6.42969C6.42969 170.992 6.68943 168.818 7.23177 166.468L4.30859 165.793L1.38542 165.118C0.755882 167.846 0.429688 170.476 0.429688 173H3.42969ZM4.30859 165.793L7.23507 166.453C8.31042 161.686 10.3494 157.334 13.3726 153.375L10.9883 151.555L8.60398 149.734C5.06464 154.369 2.65052 159.51 1.38212 165.133L4.30859 165.793ZM10.9883 151.555L13.3775 153.369C16.9985 148.601 20.508 146.762 23.8789 146.762V143.762V140.762C17.9529 140.762 12.8687 144.118 8.5991 149.74L10.9883 151.555ZM32.9609 146.574L32.1006 143.7L30.3232 144.232L30.0053 146.06L32.9609 146.574ZM55.8711 149.328L52.8712 149.296L52.8712 149.306L55.8711 149.328ZM45.9102 165.207L44.0293 162.87L42.3499 164.221L43.0951 166.244L45.9102 165.207ZM52.707 179.211L54.7419 181.415L56.409 179.876L55.3823 177.853L52.707 179.211ZM43.5078 187.473L40.7107 188.557L42.2692 192.577L45.4969 189.718L43.5078 187.473ZM37.2383 171.301L40.0354 170.216L39.2928 168.301H37.2383V171.301ZM37.1797 171.301V168.301H34.6794L34.2288 170.76L37.1797 171.301ZM35.0703 185.48L35.8751 188.37L37.8343 187.825L38.0529 185.803L35.0703 185.48ZM25.8125 188.059L22.8248 187.787L22.4314 192.114L26.6173 190.949L25.8125 188.059ZM27.1016 180.266L30.054 180.798L30.0556 180.789L30.0572 180.78L27.1016 180.266ZM40.3438 155.832L39.3757 152.993L37.8548 153.511L37.4436 155.064L40.3438 155.832ZM38.5859 163.801L35.6476 163.196L34.3835 169.336L39.958 166.469L38.5859 163.801ZM42.6289 161.047L44.5757 163.329L44.5881 163.319L44.6003 163.308L42.6289 161.047ZM45.6758 157.238L43.0533 155.781L42.9731 155.926L42.9092 156.078L45.6758 157.238ZM32.9609 146.574L33.8213 149.448C39.8288 147.65 44.5306 146.82 48.0195 146.82V143.82V140.82C43.696 140.82 38.3587 141.827 32.1006 143.7L32.9609 146.574ZM48.0195 143.82V146.82C50.4031 146.82 51.6434 147.253 52.2147 147.653C52.5833 147.912 52.8821 148.279 52.8713 149.296L55.8711 149.328L58.8709 149.36C58.8992 146.705 57.9089 144.319 55.6603 142.741C53.6144 141.306 50.9094 140.82 48.0195 140.82V143.82ZM55.8711 149.328L52.8712 149.306C52.842 153.249 50.3517 157.782 44.0293 162.87L45.9102 165.207L47.791 167.544C54.6717 162.007 58.8221 155.954 58.871 149.35L55.8711 149.328ZM45.9102 165.207L43.0951 166.244C43.719 167.937 46.0937 172.808 50.0318 180.569L52.707 179.211L55.3823 177.853C51.3516 169.911 49.1951 165.445 48.7252 164.17L45.9102 165.207ZM52.707 179.211L50.6722 177.007C48.6644 178.86 45.6167 181.597 41.5187 185.227L43.5078 187.473L45.4969 189.718C49.6021 186.082 52.6872 183.312 54.7419 181.415L52.707 179.211ZM43.5078 187.473L46.305 186.388L40.0354 170.216L37.2383 171.301L34.4411 172.385L40.7107 188.557L43.5078 187.473ZM37.2383 171.301V168.301H37.1797V171.301V174.301H37.2383V171.301ZM37.1797 171.301L34.2288 170.76C33.2805 175.936 32.5657 180.737 32.0877 185.158L35.0703 185.48L38.0529 185.803C38.5125 181.552 39.2039 176.9 40.1306 171.841L37.1797 171.301ZM35.0703 185.48L34.2655 182.59L25.0077 185.169L25.8125 188.059L26.6173 190.949L35.8751 188.37L35.0703 185.48ZM25.8125 188.059L28.8002 188.33C28.8633 187.636 29.2604 185.202 30.054 180.798L27.1016 180.266L24.1491 179.734C23.3803 184.001 22.918 186.762 22.8248 187.787L25.8125 188.059ZM27.1016 180.266L30.0572 180.78L35.9166 147.088L32.9609 146.574L30.0053 146.06L24.1459 179.752L27.1016 180.266ZM40.3438 155.832L37.4436 155.064C37.078 156.446 36.7527 157.828 36.4679 159.211L39.4062 159.816L42.3446 160.421C42.6067 159.149 42.9064 157.875 43.2439 156.6L40.3438 155.832ZM39.4062 159.816L36.4679 159.211L35.6476 163.196L38.5859 163.801L41.5243 164.406L42.3446 160.421L39.4062 159.816ZM38.5859 163.801L39.958 166.469C41.5565 165.647 43.0948 164.593 44.5757 163.329L42.6289 161.047L40.6821 158.764C39.5068 159.767 38.3497 160.549 37.2139 161.133L38.5859 163.801ZM42.6289 161.047L44.6003 163.308C46.3007 161.826 47.6872 160.199 48.4424 158.398L45.6758 157.238L42.9092 156.078C42.6488 156.699 42.0039 157.612 40.6575 158.786L42.6289 161.047ZM45.6758 157.238L48.2983 158.695C48.6719 158.023 48.9688 157.19 48.9688 156.242H45.9688H42.9688C42.9688 155.919 43.0703 155.751 43.0533 155.781L45.6758 157.238ZM45.9688 156.242H48.9688C48.9688 155.093 48.5469 153.788 47.3571 152.885C46.3237 152.101 45.1298 151.953 44.2695 151.953V154.953V157.953C44.542 157.953 44.1978 158.02 43.7308 157.665C43.4698 157.467 43.2527 157.196 43.116 156.885C42.9871 156.592 42.9688 156.353 42.9688 156.242H45.9688ZM44.2695 154.953V151.953C42.8533 151.953 41.1552 152.386 39.3757 152.993L40.3438 155.832L41.3118 158.672C42.9698 158.106 43.8889 157.953 44.2695 157.953V154.953ZM82.0039 149.094L79.1929 150.142L79.1968 150.152L82.0039 149.094ZM82.1211 165.852L85.0215 166.618L85.0245 166.607L85.0273 166.596L82.1211 165.852ZM74.6211 180.969L72.2455 179.137L72.2451 179.137L74.6211 180.969ZM51.9453 182.492L49.1403 183.556L49.1422 183.561L51.9453 182.492ZM51.9453 165.852L54.8452 166.62L54.8471 166.613L51.9453 165.852ZM59.3867 150.676L57.0046 148.852L57.0014 148.856L59.3867 150.676ZM64.543 161.984L67.0607 163.616L67.0691 163.603L67.0774 163.59L64.543 161.984ZM60.793 170.129L57.8929 169.361L57.8876 169.381L57.8825 169.401L60.793 170.129ZM61.4375 177.863L59.0596 179.692L59.0732 179.71L59.087 179.727L61.4375 177.863ZM71.1055 176.105L68.7238 174.281L68.7201 174.286L71.1055 176.105ZM74.1523 169.602L71.2442 168.865L71.2419 168.874L74.1523 169.602ZM74.6211 160.93L77.5876 160.483L77.5841 160.46L77.5803 160.436L74.6211 160.93ZM73.2148 142.18V145.18C74.6913 145.18 75.7855 145.576 76.6627 146.266C77.5771 146.985 78.466 148.192 79.193 150.142L82.0039 149.094L84.8148 148.046C83.823 145.386 82.3877 143.136 80.3724 141.55C78.3199 139.936 75.879 139.18 73.2148 139.18V142.18ZM82.0039 149.094L79.1968 150.152C79.9533 152.159 80.3516 154.412 80.3516 156.945H83.3516H86.3516C86.3516 153.775 85.8513 150.795 84.811 148.035L82.0039 149.094ZM83.3516 156.945H80.3516C80.3516 159.383 79.9854 162.099 79.2149 165.107L82.1211 165.852L85.0273 166.596C85.8974 163.198 86.3516 159.977 86.3516 156.945H83.3516ZM82.1211 165.852L79.2207 165.085C77.8805 170.156 75.5632 174.835 72.2455 179.137L74.6211 180.969L76.9967 182.801C80.7883 177.884 83.471 172.485 85.0215 166.618L82.1211 165.852ZM74.6211 180.969L72.2451 179.137C68.2014 184.383 64.3912 186.406 60.8516 186.406V189.406V192.406C66.9994 192.406 72.3689 188.804 76.9971 182.8L74.6211 180.969ZM60.8516 189.406V186.406C59.349 186.406 58.2289 186.006 57.3299 185.308C56.3956 184.583 55.4912 183.371 54.7484 181.423L51.9453 182.492L49.1422 183.561C50.1572 186.223 51.6161 188.468 53.6506 190.047C55.7203 191.654 58.1744 192.406 60.8516 192.406V189.406ZM51.9453 182.492L54.7503 181.428C54.0388 179.552 53.6562 177.381 53.6562 174.875H50.6562H47.6562C47.6562 177.994 48.1331 180.901 49.1403 183.556L51.9453 182.492ZM50.6562 174.875H53.6562C53.6562 172.408 54.0389 169.662 54.8452 166.62L51.9453 165.852L49.0454 165.083C48.133 168.525 47.6562 171.795 47.6562 174.875H50.6562ZM51.9453 165.852L54.8471 166.613C56.19 161.496 58.4923 156.795 61.7721 152.495L59.3867 150.676L57.0014 148.856C53.2499 153.775 50.5913 159.192 49.0436 165.09L51.9453 165.852ZM59.3867 150.676L61.7689 152.499C65.8102 147.22 69.6384 145.18 73.2148 145.18V142.18V139.18C67.0257 139.18 61.6351 142.803 57.0046 148.852L59.3867 150.676ZM71.1055 156.711V153.711C67.2645 153.711 64.2958 156.768 62.0085 160.379L64.543 161.984L67.0774 163.59C69.2433 160.17 70.6496 159.711 71.1055 159.711V156.711ZM64.543 161.984L62.0252 160.353C60.0899 163.34 58.6915 166.344 57.8929 169.361L60.793 170.129L63.6931 170.897C64.3007 168.601 65.4023 166.175 67.0607 163.616L64.543 161.984ZM60.793 170.129L57.8825 169.401C57.4872 170.983 57.2656 172.502 57.2656 173.938H60.2656H63.2656C63.2656 173.107 63.3957 172.087 63.7034 170.857L60.793 170.129ZM60.2656 173.938H57.2656C57.2656 176.032 57.7831 178.033 59.0596 179.692L61.4375 177.863L63.8154 176.034C63.5294 175.662 63.2656 175.046 63.2656 173.938H60.2656ZM61.4375 177.863L59.087 179.727C60.6209 181.662 62.7826 182.562 65.1875 182.562V179.562V176.562C64.3893 176.562 64.051 176.331 63.788 175.999L61.4375 177.863ZM65.1875 179.562V182.562C68.5973 182.562 71.3654 180.711 73.4908 177.925L71.1055 176.105L68.7201 174.286C67.3299 176.109 66.1527 176.562 65.1875 176.562V179.562ZM71.1055 176.105L73.4871 177.93C75.1698 175.733 76.3497 173.181 77.0628 170.329L74.1523 169.602L71.2419 168.874C70.705 171.022 69.8537 172.806 68.7238 174.281L71.1055 176.105ZM74.1523 169.602L77.0605 170.338C77.8959 167.041 78.0796 163.748 77.5876 160.483L74.6211 160.93L71.6546 161.377C72.022 163.815 71.8932 166.303 71.2442 168.865L74.1523 169.602ZM74.6211 160.93L77.5803 160.436C77.3029 158.772 76.7618 157.125 75.6953 155.845C74.5236 154.439 72.9083 153.711 71.1055 153.711V156.711V159.711C71.1914 159.711 71.18 159.725 71.1227 159.698C71.0634 159.671 71.0519 159.645 71.086 159.686C71.1913 159.813 71.4705 160.275 71.6619 161.423L74.6211 160.93ZM109.426 150.383L111.643 152.404L112.95 150.969L112.178 149.189L109.426 150.383ZM102.805 157.648L100.639 159.724L102.86 162.042L105.022 159.669L102.805 157.648ZM93.2539 161.574L95.796 163.167L95.7963 163.167L93.2539 161.574ZM89.6797 169.777L92.606 170.438L92.6093 170.424L92.6124 170.409L89.6797 169.777ZM92.1406 178.449L90.7772 181.122L90.7881 181.127L90.799 181.133L92.1406 178.449ZM100.52 174.406L103.417 173.627L101.804 167.629L98.1083 172.621L100.52 174.406ZM102.395 181.379L104.624 183.386L105.715 182.174L105.292 180.6L102.395 181.379ZM81.7109 181.379L84.4606 180.179L84.4522 180.16L84.4435 180.141L81.7109 181.379ZM80.8906 165.793L83.8138 166.468L83.8155 166.46L83.8171 166.453L80.8906 165.793ZM87.5703 151.555L89.9546 153.375L89.9595 153.369L87.5703 151.555ZM100.461 143.762V146.762C101.914 146.762 103.037 147.144 103.967 147.83C104.928 148.54 105.866 149.714 106.673 151.576L109.426 150.383L112.178 149.189C111.071 146.637 109.558 144.501 107.531 143.004C105.472 141.483 103.07 140.762 100.461 140.762V143.762ZM109.426 150.383L107.208 148.362L100.587 155.628L102.805 157.648L105.022 159.669L111.643 152.404L109.426 150.383ZM102.805 157.648L104.971 155.573C103.574 154.115 101.782 153.242 99.6992 153.242V156.242V159.242C99.9606 159.242 100.239 159.307 100.639 159.724L102.805 157.648ZM99.6992 156.242V153.242C97.7568 153.242 96.0481 154.085 94.6229 155.264C93.2103 156.432 91.9181 158.055 90.7115 159.982L93.2539 161.574L95.7963 163.167C96.8163 161.538 97.7116 160.495 98.4474 159.887C99.1706 159.288 99.5714 159.242 99.6992 159.242V156.242ZM93.2539 161.574L90.7118 159.981C88.7484 163.114 87.387 166.174 86.7469 169.146L89.6797 169.777L92.6124 170.409C93.0661 168.303 94.0875 165.894 95.796 163.167L93.2539 161.574ZM89.6797 169.777L86.7534 169.117C86.4435 170.489 86.2695 171.809 86.2695 173.059H89.2695H92.2695C92.2695 172.355 92.369 171.488 92.606 170.438L89.6797 169.777ZM89.2695 173.059H86.2695C86.2695 176.508 87.6201 179.511 90.7772 181.122L92.1406 178.449L93.504 175.777C92.833 175.435 92.2695 174.844 92.2695 173.059H89.2695ZM92.1406 178.449L90.799 181.133C91.8432 181.655 92.967 181.918 94.1328 181.918V178.918V175.918C93.8924 175.918 93.688 175.869 93.4823 175.766L92.1406 178.449ZM94.1328 178.918V181.918C97.679 181.918 100.59 179.353 102.931 176.191L100.52 174.406L98.1083 172.621C95.9959 175.475 94.6491 175.918 94.1328 175.918V178.918ZM100.52 174.406L97.6225 175.185L99.4975 182.158L102.395 181.379L105.292 180.6L103.417 173.627L100.52 174.406ZM102.395 181.379L100.165 179.372C96.6052 183.327 93.4264 184.824 90.6172 184.824V187.824V190.824C95.7767 190.824 100.449 188.025 104.624 183.386L102.395 181.379ZM90.6172 187.824V184.824C89.1456 184.824 88.0199 184.446 87.1026 183.783C86.1579 183.099 85.2425 181.971 84.4606 180.179L81.7109 181.379L78.9613 182.579C80.0544 185.084 81.5609 187.178 83.5849 188.643C85.6363 190.128 88.0262 190.824 90.6172 190.824V187.824ZM81.7109 181.379L84.4435 180.141C83.5077 178.075 83.0117 175.712 83.0117 173H80.0117H77.0117C77.0117 176.46 77.6486 179.682 78.9784 182.617L81.7109 181.379ZM80.0117 173H83.0117C83.0117 170.992 83.2715 168.818 83.8138 166.468L80.8906 165.793L77.9675 165.118C77.3379 167.846 77.0117 170.476 77.0117 173H80.0117ZM80.8906 165.793L83.8171 166.453C84.8924 161.686 86.9315 157.334 89.9546 153.375L87.5703 151.555L85.186 149.734C81.6467 154.369 79.2326 159.51 77.9641 165.133L80.8906 165.793ZM87.5703 151.555L89.9595 153.369C93.5805 148.601 97.0901 146.762 100.461 146.762V143.762V140.762C94.5349 140.762 89.4508 144.118 85.1811 149.74L87.5703 151.555ZM130.754 157.004L131.807 159.813L133.527 159.168L133.735 157.343L130.754 157.004ZM126.301 158.703L125.22 155.905L125.219 155.905L126.301 158.703ZM121.906 160.402H118.906V164.779L122.988 163.2L121.906 160.402ZM116.047 160.109L113.796 158.126L113.772 158.154L113.748 158.182L116.047 160.109ZM114.758 163.625L111.786 164.035L111.79 164.064L111.795 164.093L114.758 163.625ZM119.914 164.387L120.484 167.332L120.506 167.328L120.529 167.323L119.914 164.387ZM130.109 167.258L133.038 166.607L133.032 166.58L133.026 166.554L130.109 167.258ZM127.531 177.57L125.014 175.938L125.009 175.946L125.003 175.955L127.531 177.57ZM117.336 187.121L115.813 184.536L115.805 184.541L117.336 187.121ZM104.562 187.473L101.793 186.319L100.781 188.748L103.057 190.068L104.562 187.473ZM109.25 177.102L110.95 174.629L108.038 172.628L106.535 175.825L109.25 177.102ZM115.168 178.098L114.418 175.193L114.37 175.205L114.321 175.22L115.168 178.098ZM118.625 176.75L120.042 179.394L120.056 179.387L120.071 179.379L118.625 176.75ZM113.762 173.352L114.371 176.289L114.392 176.285L114.413 176.28L113.762 173.352ZM105.676 173.176L107.396 170.718L107.368 170.699L107.34 170.68L105.676 173.176ZM103.801 168.43L106.777 168.808L106.779 168.794L106.78 168.779L103.801 168.43ZM112.18 153.371L114.42 155.366L114.424 155.361L112.18 153.371ZM125.598 144.172L125.405 141.178L125.392 141.179L125.379 141.18L125.598 144.172ZM130.754 157.004L129.701 154.195C128.439 154.668 126.944 155.238 125.22 155.905L126.301 158.703L127.382 161.502C129.095 160.84 130.569 160.277 131.807 159.813L130.754 157.004ZM126.301 158.703L125.219 155.905L120.824 157.604L121.906 160.402L122.988 163.2L127.383 161.501L126.301 158.703ZM121.906 160.402H124.906C124.906 159.306 124.772 158.008 124.15 156.885C123.815 156.278 123.314 155.683 122.598 155.251C121.876 154.816 121.103 154.648 120.383 154.648V157.648V160.648C120.17 160.648 119.841 160.595 119.501 160.39C119.166 160.188 118.982 159.937 118.9 159.789C118.828 159.659 118.838 159.616 118.861 159.742C118.883 159.861 118.906 160.073 118.906 160.402H121.906ZM120.383 157.648V154.648C117.714 154.648 115.517 156.172 113.796 158.126L116.047 160.109L118.298 162.092C119.467 160.765 120.161 160.648 120.383 160.648V157.648ZM116.047 160.109L113.748 158.182C112.404 159.785 111.475 161.78 111.786 164.035L114.758 163.625L117.73 163.215C117.728 163.205 117.659 162.856 118.345 162.037L116.047 160.109ZM114.758 163.625L111.795 164.093C112.022 165.532 112.928 166.577 114.061 167.143C115.034 167.63 116.101 167.738 116.984 167.738V164.738V161.738C116.772 161.738 116.649 161.723 116.596 161.714C116.54 161.704 116.608 161.708 116.744 161.777C116.89 161.85 117.124 162.002 117.338 162.279C117.559 162.565 117.677 162.881 117.721 163.157L114.758 163.625ZM116.984 164.738V167.738C118.002 167.738 119.191 167.582 120.484 167.332L119.914 164.387L119.344 161.441C118.215 161.66 117.451 161.738 116.984 161.738V164.738ZM119.914 164.387L120.529 167.323C122.068 167.001 123.34 166.859 124.367 166.859V163.859V160.859C122.817 160.859 121.119 161.069 119.299 161.45L119.914 164.387ZM124.367 163.859V166.859C125.709 166.859 126.411 167.098 126.736 167.291C126.959 167.423 127.1 167.574 127.193 167.962L130.109 167.258L133.026 166.554C132.572 164.676 131.483 163.128 129.792 162.127C128.203 161.187 126.307 160.859 124.367 160.859V163.859ZM130.109 167.258L127.181 167.909C127.286 168.381 127.344 168.904 127.344 169.484H130.344H133.344C133.344 168.503 133.245 167.541 133.038 166.607L130.109 167.258ZM130.344 169.484H127.344C127.344 171.224 126.689 173.356 125.014 175.938L127.531 177.57L130.048 179.203C132.123 176.004 133.344 172.744 133.344 169.484H130.344ZM127.531 177.57L125.003 175.955C122.867 179.297 119.834 182.167 115.813 184.536L117.336 187.121L118.859 189.706C123.587 186.919 127.352 183.421 130.059 179.186L127.531 177.57ZM117.336 187.121L115.805 184.541C113.869 185.689 112.127 186.172 110.539 186.172V189.172V192.172C113.404 192.172 116.193 191.287 118.867 189.701L117.336 187.121ZM110.539 189.172V186.172C109.094 186.172 107.616 185.775 106.068 184.878L104.562 187.473L103.057 190.068C105.415 191.435 107.922 192.172 110.539 192.172V189.172ZM104.562 187.473L107.332 188.626C108.282 186.347 109.821 182.939 111.965 178.378L109.25 177.102L106.535 175.825C104.382 180.405 102.796 183.911 101.793 186.319L104.562 187.473ZM109.25 177.102L107.55 179.574C109.259 180.748 111.173 181.391 113.234 181.391V178.391V175.391C112.483 175.391 111.741 175.173 110.95 174.629L109.25 177.102ZM113.234 178.391V181.391C114.175 181.391 115.105 181.243 116.014 180.976L115.168 178.098L114.321 175.22C113.903 175.343 113.544 175.391 113.234 175.391V178.391ZM115.168 178.098L115.918 181.002C117.359 180.631 118.735 180.094 120.042 179.394L118.625 176.75L117.208 174.106C116.327 174.577 115.399 174.94 114.418 175.193L115.168 178.098ZM118.625 176.75L120.071 179.379C121.013 178.86 121.922 178.231 122.625 177.439C123.35 176.624 123.969 175.5 123.969 174.113H120.969H117.969C117.969 173.89 118.02 173.704 118.076 173.576C118.128 173.459 118.17 173.42 118.141 173.453C118.11 173.487 118.028 173.57 117.863 173.692C117.7 173.813 117.476 173.958 117.179 174.121L118.625 176.75ZM120.969 174.113H123.969C123.969 172.631 123.268 171.269 121.93 170.453C120.833 169.785 119.574 169.648 118.566 169.648V172.648V175.648C118.823 175.648 118.965 175.669 119.02 175.68C119.078 175.692 118.979 175.681 118.806 175.576C118.614 175.459 118.368 175.245 118.186 174.911C118.007 174.584 117.969 174.286 117.969 174.113H120.969ZM118.566 172.648V169.648C117.133 169.648 115.27 169.943 113.111 170.423L113.762 173.352L114.413 176.28C116.473 175.822 117.813 175.648 118.566 175.648V172.648ZM113.762 173.352L113.152 170.414C111.133 170.833 109.794 170.996 109.016 170.996V173.996V176.996C110.425 176.996 112.249 176.729 114.371 176.289L113.762 173.352ZM109.016 173.996V170.996C107.888 170.996 107.474 170.773 107.396 170.718L105.676 173.176L103.955 175.633C105.44 176.673 107.253 176.996 109.016 176.996V173.996ZM105.676 173.176L107.34 170.68C107.046 170.484 106.925 170.304 106.855 170.125C106.772 169.916 106.687 169.515 106.777 168.808L103.801 168.43L100.825 168.051C100.641 169.493 100.732 170.957 101.274 172.33C101.829 173.733 102.782 174.852 104.012 175.672L105.676 173.176ZM103.801 168.43L106.78 168.779C107.181 165.362 109.48 160.914 114.42 155.366L112.18 153.371L109.939 151.376C104.723 157.234 101.437 162.825 100.821 168.081L103.801 168.43ZM112.18 153.371L114.424 155.361C116.925 152.541 119.16 150.5 121.127 149.151C123.107 147.793 124.655 147.249 125.816 147.164L125.598 144.172L125.379 141.18C122.791 141.369 120.227 142.494 117.734 144.202C115.229 145.92 112.63 148.341 109.935 151.381L112.18 153.371ZM125.598 144.172L125.791 147.166C126.677 147.108 126.946 147.346 127.186 147.707C127.605 148.338 128.047 149.73 128.047 152.375H131.047H134.047C134.047 149.317 133.581 146.49 132.183 144.387C130.607 142.013 128.151 141.001 125.405 141.178L125.598 144.172ZM131.047 152.375H128.047C128.047 153.604 127.959 155.031 127.773 156.665L130.754 157.004L133.735 157.343C133.94 155.539 134.047 153.88 134.047 152.375H131.047Z" fill="white" mask="url(#path-1-outside-1_1148_293)"/>
</svg>
